<svg xmlns="http://www.w3.org/2000/svg" width="22" height="22" fill="currentColor" viewBox="0 0 22 22">
  <path d="M15.13 0H6.87A6.88 6.88 0 0 0 0 6.88v8.25C0 18.93 3.08 22 6.88 22h8.25c3.8 0 6.87-3.08 6.87-6.88V6.88C22 3.08 18.92 0 15.12 0Zm4.8 15.13a4.82 4.82 0 0 1-4.8 4.8H6.87a4.82 4.82 0 0 1-4.8-4.8V6.87a4.82 4.82 0 0 1 4.8-4.8h8.25a4.82 4.82 0 0 1 4.82 4.8v8.25Z"/>
  <path d="M11 5.5a5.5 5.5 0 1 0 0 11 5.5 5.5 0 0 0 0-11Zm0 8.94a3.44 3.44 0 1 1 .01-6.89 3.44 3.44 0 0 1-.01 6.89ZM16.91 5.82a.73.73 0 1 0 0-1.47.73.73 0 0 0 0 1.47Z"/>
</svg>
