<svg width="258" height="80" fill="none" viewBox="0 0 258 80" xmlns="http://www.w3.org/2000/svg">
  <path fill="#66C05D" d="M57.22 25.37 46.69 35.91l4.08 4.07L61.3 29.45l-4.08-4.08ZM35.9 46.7 25.39 57.25l4.07 4.08L40 50.78l-4.08-4.07ZM50.52 18.7 39.98 29.25l4.08 4.08L54.6 22.78l-4.08-4.07ZM29.24 40.01 18.7 50.54l4.08 4.08L33.31 44.1 29.24 40ZM22.76 25.37l-4.08 4.08L29.2 39.98l4.08-4.07-10.53-10.54ZM29.45 18.7l-4.07 4.08L35.9 33.3l4.08-4.08L29.45 18.7ZM50.76 39.98l-4.08 4.08 10.53 10.53 4.08-4.08-10.53-10.53ZM44.1 46.68 40 50.76 50.55 61.3l4.08-4.08-10.54-10.54Z"/>
  <path fill="#EFEFEF" d="m54.6 65.4-4.06-4.07L40 71.87 29.46 61.33l-4.07 4.06L40 80l14.6-14.6ZM18.67 29.46l-4.06-4.07L0 40l14.6 14.6 4.07-4.06L8.13 40l10.54-10.54ZM65.4 25.4l-4.07 4.06L71.87 40 61.33 50.54l4.06 4.07L80 40 65.4 25.4ZM50.54 18.67l4.07-4.06L40 0 25.4 14.6l4.06 4.07L40 8.13l10.54 10.54Z"/>
  <path fill="#66C05D" d="M102.28 54V28.4h8.97c3.1 0 5.46.6 7.07 1.8 1.6 1.18 2.4 2.92 2.4 5.22 0 1.25-.32 2.36-.96 3.32a5.6 5.6 0 0 1-2.7 2.1c1.32.32 2.35.98 3.1 1.98.76 1 1.15 2.22 1.15 3.66 0 2.46-.79 4.32-2.36 5.59-1.57 1.26-3.8 1.9-6.72 1.93h-9.95Zm5.28-11.14v6.9h4.52c1.24 0 2.2-.29 2.9-.88.7-.6 1.05-1.41 1.05-2.46 0-2.34-1.21-3.53-3.64-3.56h-4.83Zm0-3.73h3.9c2.66-.05 4-1.1 4-3.18 0-1.16-.35-2-1.03-2.5-.67-.51-1.73-.77-3.18-.77h-3.7v6.45Zm36.72 3.78h-10.13v6.85h11.88V54h-17.15V28.4H146v4.28h-11.85v6.1h10.13v4.13Zm22.9 5.82h-9.25L156.17 54h-5.6l9.52-25.6h4.89l9.58 25.6h-5.6l-1.78-5.27Zm-7.83-4.27h6.4l-3.21-9.59-3.19 9.59ZM199.6 28.4v16.85c0 2.8-.87 5.02-2.63 6.65-1.75 1.63-4.14 2.44-7.17 2.44-3 0-5.37-.79-7.12-2.37-1.76-1.58-2.66-3.76-2.7-6.52V28.4h5.28V45.3c0 1.67.4 2.9 1.2 3.67.8.76 1.92 1.15 3.34 1.15 2.96 0 4.47-1.56 4.51-4.68V28.41h5.3Zm27.2 4.27h-7.84V54h-5.28V32.68h-7.73V28.4h20.84v4.27Zm15.72 7.26 5.33-11.53h5.77l-8.4 16.3V54h-5.37v-9.28l-8.4-16.31h5.78l5.3 11.53Z"/>
</svg>
