<svg xmlns="http://www.w3.org/2000/svg" width="140" height="108" fill="#fff" fill-opacity=".4" viewBox="0 0 140 108">
  <path d="M122.9.73H17.13A17.13 17.13 0 0 0 0 17.85v72.3c0 9.44 7.68 17.12 17.12 17.12h105.76c9.44 0 17.12-7.68 17.12-17.12V17.88A17.12 17.12 0 0 0 122.9.73Zm9.3 89.42c0 5.13-4.16 9.3-9.3 9.3H17.13a9.3 9.3 0 0 1-9.3-9.3V17.88a9.3 9.3 0 0 1 9.3-9.3h105.76c5.13 0 9.3 4.17 9.3 9.3v72.27h.03Z"/>
  <path d="m88.3 53.1 34.23-30.7a3.93 3.93 0 0 0 .3-5.54 3.93 3.93 0 0 0-5.54-.29L70.07 58.95l-9.2-8.22a5.79 5.79 0 0 0-.7-.64L22.68 16.54a3.9 3.9 0 0 0-5.53.32 3.9 3.9 0 0 0 .32 5.54L52.1 53.36l-34.5 32.3a3.93 3.93 0 0 0 5.36 5.74L58 58.63l9.5 8.5a3.9 3.9 0 0 0 5.22-.04l9.76-8.74 34.82 33.08a3.9 3.9 0 1 0 5.39-5.68L88.29 53.1Z"/>
</svg>
