<svg xmlns="http://www.w3.org/2000/svg" width="29" height="15" fill="currentColor" viewBox="0 0 29 15">
  <path d="M27.9 13.55a13.9 13.9 0 0 0-2.88-3.2l-.04-.03-.01-.01-.02-.01h-.01c-.62-.56-1.02-.94-1.18-1.13-.3-.36-.37-.73-.2-1.1.1-.29.55-.89 1.3-1.8l.95-1.16c1.69-2.1 2.42-3.44 2.2-4.03l-.1-.13c-.05-.09-.2-.16-.45-.23a2.45 2.45 0 0 0-.93-.03l-4.2.02a.58.58 0 0 0-.3.01l-.19.04-.07.04-.06.04a.63.63 0 0 0-.16.14.93.93 0 0 0-.14.24 21.77 21.77 0 0 1-2.56 4.55 5.2 5.2 0 0 1-1.31 1.39c-.17.12-.3.17-.38.15l-.25-.05a.94.94 0 0 1-.33-.34 1.43 1.43 0 0 1-.17-.53 5.54 5.54 0 0 1-.04-1.21l.01-.58a31.79 31.79 0 0 1 .06-2.1l.02-.75c0-.26-.02-.47-.06-.62-.03-.15-.08-.3-.15-.44a.75.75 0 0 0-.3-.33c-.13-.07-.3-.13-.49-.18C14.95.07 14.3.01 13.5 0c-1.8-.02-2.97.1-3.49.33-.2.1-.39.24-.55.41-.18.2-.2.31-.08.33.59.08 1 .28 1.24.59l.1.16a5.97 5.97 0 0 1 .34 1.63 9.99 9.99 0 0 1-.15 2.82 2.12 2.12 0 0 1-.37.95.24.24 0 0 1-.08.06c-.12.05-.25.07-.39.07a.96.96 0 0 1-.5-.19c-.2-.13-.4-.3-.6-.53-.21-.22-.45-.53-.71-.93-.26-.4-.54-.88-.82-1.43l-.23-.4a33.34 33.34 0 0 1-1.27-2.53.91.91 0 0 0-.35-.43L5.5.86a1.63 1.63 0 0 0-.57-.2l-4 .03C.53.69.25.77.1.95l-.06.08a.42.42 0 0 0-.04.22c0 .1.03.22.09.37a44 44 0 0 0 5.24 8.68 30.72 30.72 0 0 0 1.44 1.65l.37.33c.23.22.58.48 1.03.79.45.3.95.6 1.5.9a8.47 8.47 0 0 0 4.05.95h1.68c.34-.03.6-.13.78-.3l.06-.07a1.31 1.31 0 0 0 .16-.63c-.01-.39.02-.74.1-1.06.06-.31.15-.55.24-.71a1.76 1.76 0 0 1 .56-.6 1 1 0 0 1 .12-.05c.23-.07.5 0 .82.21.32.22.62.48.9.8.27.31.6.66 1 1.06.38.39.72.68 1.02.87l.29.17c.2.1.45.2.76.3.3.09.58.11.82.07l3.73-.06c.37 0 .66-.05.86-.17.2-.11.33-.24.37-.38a1 1 0 0 0 0-.46c-.03-.17-.06-.3-.1-.36Z"/>
</svg>
