<svg xmlns="http://www.w3.org/2000/svg" xmlns:xlink="http://www.w3.org/1999/xlink"><symbol id="facebook" viewBox="0 0 12 20"><g fill="currentColor"><path d="M11 0H8.4C5.5 0 3.6 1.93 3.6 4.92V7.2H1a.4.4 0 00-.4.4v3.3c0 .22.18.4.4.4h2.6v8.3c0 .23.2.41.42.41h3.4a.4.4 0 00.4-.4v-8.3h3.06a.4.4 0 00.4-.41V7.6a.4.4 0 00-.4-.4H7.83V5.27c0-.93.22-1.4 1.42-1.4H11a.4.4 0 00.4-.4V.4A.4.4 0 0011 0z"/></g></symbol><symbol id="instagram" viewBox="0 0 22 22"><g fill="currentColor"><path d="M15.13 0H6.87A6.88 6.88 0 000 6.88v8.25C0 18.93 3.08 22 6.88 22h8.25c3.8 0 6.87-3.08 6.87-6.88V6.88C22 3.08 18.92 0 15.12 0zm4.8 15.13a4.82 4.82 0 01-4.8 4.8H6.87a4.82 4.82 0 01-4.8-4.8V6.87a4.82 4.82 0 014.8-4.8h8.25a4.82 4.82 0 014.82 4.8v8.25z"/><path d="M11 5.5a5.5 5.5 0 100 11 5.5 5.5 0 000-11zm0 8.94a3.44 3.44 0 11.01-6.89 3.44 3.44 0 01-.01 6.89zm5.91-8.62a.73.73 0 100-1.47.73.73 0 000 1.47z"/></g></symbol><symbol id="logo" viewBox="0 0 258 80"><g fill="none"><path fill="#66C05D" d="M57.22 25.37L46.69 35.91l4.08 4.07L61.3 29.45l-4.08-4.08zM35.9 46.7L25.39 57.25l4.07 4.08L40 50.78l-4.08-4.07zm14.62-28L39.98 29.25l4.08 4.08L54.6 22.78l-4.08-4.07zM29.24 40.01L18.7 50.54l4.08 4.08L33.31 44.1 29.24 40zm-6.48-14.64l-4.08 4.08L29.2 39.98l4.08-4.07-10.53-10.54zm6.69-6.67l-4.07 4.08L35.9 33.3l4.08-4.08L29.45 18.7zm21.31 21.28l-4.08 4.08 10.53 10.53 4.08-4.08-10.53-10.53zm-6.66 6.7L40 50.76 50.55 61.3l4.08-4.08-10.54-10.54z"/><path fill="#EFEFEF" d="M54.6 65.4l-4.06-4.07L40 71.87 29.46 61.33l-4.07 4.06L40 80l14.6-14.6zM18.67 29.46l-4.06-4.07L0 40l14.6 14.6 4.07-4.06L8.13 40l10.54-10.54zM65.4 25.4l-4.07 4.06L71.87 40 61.33 50.54l4.06 4.07L80 40 65.4 25.4zm-14.86-6.73l4.07-4.06L40 0 25.4 14.6l4.06 4.07L40 8.13l10.54 10.54z"/><path fill="#66C05D" d="M102.28 54V28.4h8.97c3.1 0 5.46.6 7.07 1.8 1.6 1.18 2.4 2.92 2.4 5.22 0 1.25-.32 2.36-.96 3.32a5.6 5.6 0 01-2.7 2.1c1.32.32 2.35.98 3.1 1.98.76 1 1.15 2.22 1.15 3.66 0 2.46-.79 4.32-2.36 5.59-1.57 1.26-3.8 1.9-6.72 1.93h-9.95zm5.28-11.14v6.9h4.52c1.24 0 2.2-.29 2.9-.88.7-.6 1.05-1.41 1.05-2.46 0-2.34-1.21-3.53-3.64-3.56h-4.83zm0-3.73h3.9c2.66-.05 4-1.1 4-3.18 0-1.16-.35-2-1.03-2.5-.67-.51-1.73-.77-3.18-.77h-3.7v6.45zm36.72 3.78h-10.13v6.85h11.88V54h-17.15V28.4H146v4.28h-11.85v6.1h10.13v4.13zm22.9 5.82h-9.25L156.17 54h-5.6l9.52-25.6h4.89l9.58 25.6h-5.6l-1.78-5.27zm-7.83-4.27h6.4l-3.21-9.59-3.19 9.59zM199.6 28.4v16.85c0 2.8-.87 5.02-2.63 6.65-1.75 1.63-4.14 2.44-7.17 2.44-3 0-5.37-.79-7.12-2.37-1.76-1.58-2.66-3.76-2.7-6.52V28.4h5.28v16.9c0 1.67.4 2.9 1.2 3.67.8.76 1.92 1.15 3.34 1.15 2.96 0 4.47-1.56 4.51-4.68V28.41h5.3zm27.2 4.27h-7.84V54h-5.28V32.68h-7.73V28.4h20.84v4.27zm15.72 7.26l5.33-11.53h5.77l-8.4 16.3V54h-5.37v-9.28l-8.4-16.31h5.78l5.3 11.53z"/></g></symbol><symbol id="vk" viewBox="0 0 29 15"><g fill="currentColor"><path d="M27.9 13.55a13.9 13.9 0 00-2.88-3.2l-.04-.03-.01-.01-.02-.01h-.01c-.62-.56-1.02-.94-1.18-1.13-.3-.36-.37-.73-.2-1.1.1-.29.55-.89 1.3-1.8l.95-1.16c1.69-2.1 2.42-3.44 2.2-4.03l-.1-.13c-.05-.09-.2-.16-.45-.23a2.45 2.45 0 00-.93-.03l-4.2.02a.58.58 0 00-.3.01l-.19.04-.07.04-.06.04a.63.63 0 00-.16.14.93.93 0 00-.14.24 21.77 21.77 0 01-2.56 4.55 5.2 5.2 0 01-1.31 1.39c-.17.12-.3.17-.38.15l-.25-.05a.94.94 0 01-.33-.34 1.43 1.43 0 01-.17-.53 5.54 5.54 0 01-.04-1.21l.01-.58a31.79 31.79 0 01.06-2.1l.02-.75c0-.26-.02-.47-.06-.62-.03-.15-.08-.3-.15-.44a.75.75 0 00-.3-.33c-.13-.07-.3-.13-.49-.18C14.95.07 14.3.01 13.5 0c-1.8-.02-2.97.1-3.49.33-.2.1-.39.24-.55.41-.18.2-.2.31-.08.33.59.08 1 .28 1.24.59l.1.16a5.97 5.97 0 01.34 1.63 9.99 9.99 0 01-.15 2.82 2.12 2.12 0 01-.37.95.24.24 0 01-.08.06c-.12.05-.25.07-.39.07a.96.96 0 01-.5-.19c-.2-.13-.4-.3-.6-.53a6.5 6.5 0 01-.71-.93c-.26-.4-.54-.88-.82-1.43l-.23-.4a33.34 33.34 0 01-1.27-2.53.91.91 0 00-.35-.43L5.5.86a1.63 1.63 0 00-.57-.2l-4 .03C.53.69.25.77.1.95l-.06.08a.42.42 0 00-.04.22c0 .1.03.22.09.37a44 44 0 005.24 8.68 30.72 30.72 0 001.44 1.65l.37.33c.23.22.58.48 1.03.79.45.3.95.6 1.5.9a8.47 8.47 0 004.05.95h1.68c.34-.03.6-.13.78-.3l.06-.07a1.31 1.31 0 00.16-.63c-.01-.39.02-.74.1-1.06.06-.31.15-.55.24-.71a1.76 1.76 0 01.56-.6 1 1 0 01.12-.05c.23-.07.5 0 .82.21.32.22.62.48.9.8.27.31.6.66 1 1.06.38.39.72.68 1.02.87l.29.17c.2.1.45.2.76.3.3.09.58.11.82.07l3.73-.06c.37 0 .66-.05.86-.17.2-.11.33-.24.37-.38a1 1 0 000-.46c-.03-.17-.06-.3-.1-.36z"/></g></symbol><symbol id="youtube" viewBox="0 0 22 15"><g fill="currentColor"><path d="M17.43 0H4.57A4.49 4.49 0 000 4.4v6.2C0 13.03 2.05 15 4.57 15h12.86A4.49 4.49 0 0022 10.6V4.4C22 1.97 19.95 0 17.43 0zm-3.09 7.8l-6.02 2.77c-.16.07-.34-.04-.34-.21v-5.7c0-.18.19-.3.35-.21l6.02 2.93c.17.1.17.34 0 .42z"/></g></symbol></svg>